<svg id="svg" version="1.1" xmlns="http://www.w3.org/2000/svg" style="display: block;" viewBox="0 0 960 560"><path d="M0,0 L960,0 L960,560 L0,560 Z " transform="translate(0,0)" style="fill: #FAFDF9;"/><path d="M0,0 L209,0 L214,3 L218,8 L218,60 L215,63 L212,64 L3,64 L-2,59 L-5,54 L-5,5 Z " transform="translate(335,10)" style="fill: #0182E4;"/><path d="M0,0 L208,0 L213,3 L217,8 L217,60 L214,63 L211,64 L2,64 L-3,59 L-6,55 L-6,5 L-3,1 Z " transform="translate(736,490)" style="fill: #0182E3;"/><path d="M0,0 L208,0 L213,3 L217,8 L217,59 L214,63 L211,64 L2,64 L-3,59 L-6,55 L-6,5 L-3,1 Z " transform="translate(416,490)" style="fill: #0182E4;"/><path d="M0,0 L208,0 L213,3 L217,8 L217,60 L214,63 L211,64 L2,64 L-3,59 L-6,55 L-6,6 L-3,1 Z " transform="translate(656,330)" style="fill: #0182E4;"/><path d="M0,0 L208,0 L213,3 L217,8 L217,59 L214,63 L211,64 L2,64 L-3,59 L-6,55 L-6,5 L-3,1 Z " transform="translate(16,250)" style="fill: #0182E4;"/><path d="M0,0 L208,0 L213,3 L217,8 L217,60 L214,63 L211,64 L2,64 L-3,59 L-6,55 L-6,6 L-3,1 Z " transform="translate(736,250)" style="fill: #0182E4;"/><path d="M0,0 L208,0 L213,3 L217,8 L217,59 L214,63 L211,64 L2,64 L-3,59 L-6,55 L-6,6 L-3,1 Z " transform="translate(336,410)" style="fill: #0382E2;"/><path d="M0,0 L50,0 L53,1 L58,9 L58,218 L55,223 L53,224 L2,224 L-5,215 L-5,6 L-2,1 Z " transform="translate(175,330)" style="fill: #0182E3;"/><path d="M0,0 L50,0 L55,5 L58,9 L58,218 L55,223 L53,224 L3,224 L-2,219 L-5,215 L-5,6 L-2,1 Z " transform="translate(255,250)" style="fill: #0382E2;"/><path d="M0,0 L50,0 L55,5 L58,9 L58,218 L55,223 L53,224 L3,224 L-2,219 L-5,215 L-5,6 L-2,1 Z " transform="translate(655,90)" style="fill: #0182E4;"/><path d="M0,0 L49,0 L54,3 L58,9 L58,218 L55,223 L53,224 L3,224 L-2,219 L-5,215 L-5,6 L-2,1 Z " transform="translate(735,10)" style="fill: #0182E4;"/><path d="M0,0 L50,0 L55,5 L58,9 L58,218 L55,223 L53,224 L3,224 L-2,219 L-5,212 L-5,6 L-2,1 Z " transform="translate(575,250)" style="fill: #0182E4;"/><path d="M0,0 L134,0 L136,1 L136,4 L138,4 L140,8 L140,60 L137,64 L3,64 L0,61 L0,59 L-2,59 L-3,57 L-3,4 Z " transform="translate(333,250)" style="fill: #FDB52C;"/><path d="M0,0 L134,0 L138,4 L140,8 L140,60 L137,64 L3,64 L-1,59 L-3,55 L-3,4 Z " transform="translate(13,330)" style="fill: #ED5744;"/><path d="M0,0 L134,0 L136,1 L139,6 L140,7 L140,61 L137,64 L3,64 L-3,55 L-3,4 Z " transform="translate(253,490)" style="fill: #ED5744;"/><path d="M0,0 L134,0 L134,2 L136,2 L140,7 L140,61 L137,64 L3,64 L-3,55 L-3,4 Z " transform="translate(733,410)" style="fill: #ED5744;"/><path d="M0,0 L131,0 L137,7 L137,61 L134,64 L0,64 L-6,55 L-6,4 L-4,1 Z " transform="translate(336,330)" style="fill: #EB5845;"/><path d="M0,0 L134,0 L136,1 L136,4 L138,4 L140,9 L140,60 L136,64 L3,64 L-1,59 L-3,54 L-3,4 Z " transform="translate(573,10)" style="fill: #FEB52C;"/><path d="M0,0 L134,0 L134,2 L136,2 L136,5 L139,6 L140,9 L140,60 L137,64 L3,64 L-2,58 L-3,55 L-3,4 Z " transform="translate(493,170)" style="fill: #FEB52C;"/><path d="M0,0 L131,0 L134,5 L137,8 L137,61 L134,64 L0,64 L-4,59 L-6,55 L-6,4 L-4,1 Z " transform="translate(176,170)" style="fill: #EC5744;"/><path d="M0,0 L131,0 L134,5 L137,8 L137,60 L134,64 L0,64 L-6,55 L-6,4 L-4,1 Z " transform="translate(496,90)" style="fill: #EB5845;"/><path d="M0,0 L131,0 L136,2 L136,5 L139,6 L140,8 L140,60 L136,64 L3,64 L1,62 L1,59 L-1,59 L-3,54 L-3,4 Z " transform="translate(13,10)" style="fill: #FDB52C;"/><path d="M0,0 L130,0 L133,3 L133,5 L136,6 L137,8 L137,60 L133,64 L0,64 L-6,56 L-6,4 L-3,1 Z " transform="translate(816,10)" style="fill: #EC5744;"/><path d="M0,0 L51,0 L56,5 L58,7 L58,140 L54,144 L1,144 L-5,137 L-5,3 Z " transform="translate(175,10)" style="fill: #FCB630;"/><path d="M0,0 L52,0 L59,7 L59,140 L55,144 L2,144 L-4,137 L-4,3 Z " transform="translate(654,410)" style="fill: #FCB630;"/><path d="M0,0 L51,0 L54,2 L54,5 L58,7 L58,140 L54,144 L1,144 L-5,137 L-5,3 Z " transform="translate(95,90)" style="fill: #FCB630;"/><path d="M0,0 L51,0 L58,7 L58,140 L54,144 L1,144 L-5,137 L-5,3 Z " transform="translate(15,90)" style="fill: #FCB630;"/><path d="M0,0 L51,0 L56,5 L58,7 L58,140 L54,144 L1,144 L-5,137 L-5,3 Z " transform="translate(255,10)" style="fill: #FCB630;"/><path d="M0,0 L51,0 L54,2 L54,5 L58,7 L58,140 L54,144 L1,144 L-5,137 L-5,3 Z " transform="translate(95,410)" style="fill: #FCB630;"/><path d="M0,0 L51,0 L54,2 L54,5 L58,7 L58,140 L54,144 L1,144 L-5,137 L-5,3 Z " transform="translate(15,410)" style="fill: #FCB630;"/><path d="M0,0 L50,0 L55,5 L57,7 L57,140 L53,144 L0,144 L-6,137 L-6,3 L-4,1 Z " transform="translate(416,90)" style="fill: #FCB630;"/><path d="M0,0 L50,0 L55,5 L57,7 L57,140 L53,144 L0,144 L-6,137 L-6,3 L-4,1 Z " transform="translate(336,90)" style="fill: #FCB630;"/><path d="M0,0 L52,0 L57,5 L59,7 L59,140 L55,144 L2,144 L-3,138 L-4,134 L-4,3 Z " transform="translate(894,330)" style="fill: #FCB62F;"/><path d="M0,0 L50,0 L57,7 L57,140 L53,144 L0,144 L-5,138 L-6,134 L-6,3 L-4,1 Z " transform="translate(496,250)" style="fill: #FCB62F;"/><path d="M0,0 L45,0 L53,2 L57,7 L57,140 L53,144 L0,144 L-6,137 L-6,3 L-4,1 Z " transform="translate(896,90)" style="fill: #FCB630;"/><path d="M0,0 L45,0 L53,2 L57,7 L57,140 L53,144 L0,144 L-6,137 L-6,3 L-4,1 Z " transform="translate(816,90)" style="fill: #FCB62F;"/><path d="M0,0 L50,0 L55,5 L58,9 L58,218 L55,223 L53,224 L3,224 L-2,219 L-5,212 L-5,6 L-2,1 Z M0,2 L-3,5 L-4,167 L-3,214 L1,219 L49,219 L54,214 L53,6 L50,2 Z " transform="translate(575,250)" style="fill: #1A7BC7;"/><path d="M0,0 L208,0 L213,3 L217,8 L217,59 L214,63 L211,64 L2,64 L-3,59 L-6,55 L-6,5 L-3,1 Z M5,1 L-2,3 L-4,5 L-4,54 L0,59 L192,59 L208,58 L213,54 L213,6 L208,2 L192,1 Z " transform="translate(416,490)" style="fill: #2C7CBB;"/><path d="M0,0 L208,0 L213,3 L217,8 L217,60 L214,63 L211,64 L2,64 L-3,59 L-6,55 L-6,6 L-3,1 Z M6,1 L-3,4 L-5,6 L-5,24 L-4,54 L0,59 L208,59 L213,54 L213,6 L208,2 L205,1 Z " transform="translate(736,250)" style="fill: #4879A5;"/><path d="M0,0 L208,0 L213,3 L217,8 L217,60 L214,63 L211,64 L2,64 L-3,59 L-6,55 L-6,5 L-3,1 Z M5,1 L-4,3 L-5,6 L-5,54 L1,58 L7,59 L208,59 L213,53 L213,6 L208,2 L205,1 Z " transform="translate(736,490)" style="fill: #2D7CB9;"/><path d="M0,0 L134,0 L136,1 L136,4 L138,4 L140,9 L140,60 L136,64 L3,64 L-1,59 L-3,54 L-3,4 Z M2,2 L-1,6 L-1,54 L0,58 L130,59 L134,57 L135,55 L135,6 L131,2 Z " transform="translate(573,10)" style="fill: #EAB955;"/><path d="M0,0 L134,0 L134,2 L136,2 L140,7 L140,61 L137,64 L3,64 L-3,55 L-3,4 Z M3,2 L-1,6 L-1,54 L1,58 L133,58 L136,54 L136,22 L135,6 L132,5 L131,2 Z " transform="translate(733,410)" style="fill: #CC635E;"/><path d="M0,0 L134,0 L134,2 L136,2 L136,5 L139,6 L140,9 L140,60 L137,64 L3,64 L-2,58 L-3,55 L-3,4 Z M2,2 L-1,6 L-1,54 L0,58 L130,59 L134,57 L135,55 L135,6 L131,2 Z " transform="translate(493,170)" style="fill: #E9B954;"/><path d="M0,0 L134,0 L138,4 L140,8 L140,60 L137,64 L3,64 L-1,59 L-3,55 L-3,4 Z M2,2 L-1,4 L-1,53 L1,57 L3,58 L132,58 L136,54 L136,22 L135,5 L133,2 Z " transform="translate(13,330)" style="fill: #CC635E;"/><path d="M0,0 L134,0 L136,1 L139,6 L140,7 L140,61 L137,64 L3,64 L-3,55 L-3,4 Z M2,2 L-1,4 L-1,54 L3,58 L134,58 L136,54 L136,22 L135,5 L133,2 Z " transform="translate(253,490)" style="fill: #CA655D;"/><path d="M0,0 L50,0 L53,1 L58,9 L58,218 L55,223 L53,224 L2,224 L-5,215 L-5,6 L-4,6 L-4,214 L0,216 L3,218 L49,218 L53,214 L53,7 L50,3 L42,2 L4,2 L-4,4 Z " transform="translate(175,330)" style="fill: #2C7CB8;"/><path d="M0,0 L131,0 L131,1 L0,1 Z M131,1 L136,6 L137,7 L137,61 L134,64 L0,64 L-4,59 L-3,57 L-2,58 L132,58 L132,22 Z M-5,55 Z " transform="translate(336,330)" style="fill: #946D75;"/><path d="M0,0 Z M215,-55 L220,-50 L221,-49 L221,3 L218,6 L215,7 L6,7 L1,2 L4,2 L212,2 L216,0 L217,-3 L217,-50 L215,-52 Z " transform="translate(652,387)" style="fill: #5E7A97;"/><path d="M0,0 Z M215,-55 L220,-50 L221,-49 L221,2 L218,6 L215,7 L6,7 L1,2 L4,2 L212,2 L216,0 L217,-3 L217,-50 L215,-52 Z " transform="translate(332,467)" style="fill: #5E7A97;"/><path d="M0,0 Z M217,-52 L221,-49 L221,2 L218,6 L215,7 L6,7 L1,2 L4,2 L212,2 L216,1 L217,-3 Z " transform="translate(12,307)" style="fill: #5E7A97;"/><path d="M0,0 L2,1 L2,53 L-1,56 L-4,57 L-213,57 L-218,52 L-220,50 L-219,47 L-219,49 L-215,51 L-214,52 L-7,52 L-3,51 L-2,47 L0,47 Z " transform="translate(551,17)" style="fill: #5F7A98;"/><path d="M0,0 Z M-1,1 L0,4 L0,56 L-2,54 L-2,3 Z M137,4 L140,5 L141,7 L141,59 L138,63 L4,63 L0,58 L1,56 L3,57 L130,57 L134,56 L136,53 Z " transform="translate(492,91)" style="fill: #906E76;"/><path d="M0,0 Z M1,1 L4,4 L4,213 L1,218 L-1,219 L-51,219 L-56,214 L-58,210 L-54,212 L-51,214 L-3,214 L0,209 Z " transform="translate(309,255)" style="fill: #587C9A;"/><path d="M0,0 L208,0 L213,3 L214,7 L214,54 L212,52 L211,6 L208,3 L0,3 L-3,6 L-3,54 L-1,58 L-5,57 L-6,55 L-6,5 L-3,1 Z M212,54 Z M211,55 L212,58 L208,59 Z M-1,58 Z M192,58 L207,58 L208,60 L0,60 L0,59 Z " transform="translate(16,250)" style="fill: #1E7AC3;"/><path d="M0,0 L3,3 L3,212 L0,217 L-2,218 L-52,218 L-55,216 L-55,214 L-6,213 L-3,212 L-1,209 Z " transform="translate(790,16)" style="fill: #587C99;"/><path d="M0,0 Z M1,1 L4,4 L4,213 L1,218 L-1,219 L-51,219 L-55,215 L-5,214 L-1,213 L0,211 Z " transform="translate(629,255)" style="fill: #587C99;"/><path d="M0,0 Z M1,1 L4,4 L4,213 L1,218 L-1,219 L-51,219 L-54,217 L-54,215 L-5,214 L-1,213 L0,211 Z " transform="translate(709,95)" style="fill: #587B99;"/><path d="M0,0 L49,0 L54,3 L55,5 L55,215 L52,219 L49,220 L-1,220 L-5,215 L-5,6 L-2,1 Z M0,2 L-3,5 L-3,215 L1,219 L49,219 L54,214 L54,7 L50,2 Z " transform="translate(735,10)" style="fill: #1F7BC3;"/><path d="M0,0 L50,0 L54,3 L53,6 L53,4 L50,3 L0,3 L-2,5 L-2,215 L1,218 L48,218 L49,220 L-1,220 L-5,215 L-5,6 L-2,1 Z M54,6 L55,6 L55,216 L53,219 L49,218 L53,214 Z " transform="translate(655,90)" style="fill: #1F7BC3;"/><path d="M0,0 L209,0 L214,3 L216,6 L216,54 L214,54 L213,6 L210,3 L2,3 L-3,6 L-4,54 L-5,54 L-5,5 Z M213,54 L214,56 L211,59 L209,58 Z M9,58 L208,58 L209,60 L2,60 L2,59 Z " transform="translate(335,10)" style="fill: #207AC3;"/><path d="M0,0 L208,0 L211,2 L210,4 L208,3 L1,3 L-3,5 L-3,21 L-4,24 L-3,54 L-1,58 L-5,57 L-6,55 L-6,6 L-3,1 Z M213,7 L214,7 L214,54 L213,54 Z M212,54 L213,57 L208,59 Z M-1,58 Z M192,58 L207,58 L208,60 L0,60 L0,59 Z " transform="translate(656,330)" style="fill: #1E79C3;"/><path d="M0,0 Z M217,-53 L219,-52 L219,0 L216,3 L213,4 L4,4 L1,1 L211,0 L215,-2 L216,-6 Z " transform="translate(734,550)" style="fill: #68788D;"/><path d="M0,0 Z M217,-53 L219,-52 L219,-1 L216,3 L213,4 L4,4 L1,1 L212,0 L215,-2 L216,-6 Z " transform="translate(414,550)" style="fill: #68788D;"/><path d="M0,0 L3,1 L3,55 L0,58 L-134,58 L-135,54 L-5,53 L-2,52 L-1,48 Z " transform="translate(390,496)" style="fill: #7E6F7F;"/><path d="M0,0 L2,0 L3,3 L3,54 L0,58 L-134,58 L-136,54 L-4,53 L-1,50 Z " transform="translate(630,176)" style="fill: #757674;"/><path d="M0,0 L2,0 L3,3 L3,54 L-1,58 L-134,58 L-136,54 L-4,53 L-1,50 Z " transform="translate(710,16)" style="fill: #757574;"/><path d="M0,0 L2,0 L3,2 L3,54 L-1,58 L-134,58 L-136,54 L-3,53 L-1,50 Z " transform="translate(150,16)" style="fill: #757574;"/><path d="M0,0 L2,0 L3,2 L3,54 L0,58 L-134,58 L-136,54 L-2,53 L-1,50 Z " transform="translate(470,256)" style="fill: #757675;"/><path d="M0,0 L3,1 L3,55 L0,58 L-134,58 L-135,54 L-1,53 Z " transform="translate(870,416)" style="fill: #7C707E;"/><path d="M0,0 L2,0 L3,2 L3,54 L-1,58 L-134,58 L-136,54 L-1,53 Z " transform="translate(950,16)" style="fill: #7D707C;"/><path d="M0,0 L2,0 L3,2 L3,55 L0,58 L-134,58 L-134,54 L-1,53 Z " transform="translate(310,176)" style="fill: #7C717D;"/><path d="M0,0 L2,0 L3,2 L3,54 L0,58 L-134,58 L-134,54 L-1,53 Z " transform="translate(150,336)" style="fill: #7C707D;"/><path d="M0,0 L131,0 L134,5 L134,59 L133,60 L0,61 L-3,61 L-6,55 L-6,4 L-4,1 Z M48,1 L-1,2 L-4,7 L-4,51 L-2,57 L0,58 L126,59 L131,57 L133,54 L133,22 L132,6 L128,1 Z " transform="translate(176,170)" style="fill: #CB645D;"/><path d="M0,0 L134,0 L136,1 L136,4 L138,4 L137,56 L135,60 L0,61 L0,59 L-2,59 L-3,57 L-3,4 Z M2,2 L-1,6 L-1,54 L1,59 L130,59 L134,57 L135,55 L135,6 L131,2 Z " transform="translate(333,250)" style="fill: #E8B95A;"/><path d="M0,0 L131,0 L136,2 L136,5 L138,6 L137,56 L134,60 L1,60 L-2,57 L-3,54 L-3,4 Z M1,2 L-1,4 L-1,54 L0,58 L2,59 L129,59 L134,57 L135,39 L135,7 L134,3 L131,2 Z " transform="translate(13,10)" style="fill: #E9B957;"/><path d="M0,0 L2,1 L2,210 L-1,215 L-3,216 L-54,216 L-57,212 L-4,211 L-1,206 Z " transform="translate(231,338)" style="fill: #617C93;"/><path d="M0,0 L130,0 L133,3 L133,5 L135,6 L134,59 L133,60 L-3,60 L-6,56 L-6,4 L-3,1 Z M-1,2 L-4,4 L-4,56 L1,59 L126,59 L131,57 L133,48 L132,6 L129,5 L128,2 Z " transform="translate(816,10)" style="fill: #CB635D;"/><path d="M0,0 L3,1 L3,134 L-1,138 L-54,138 L-56,134 L-3,134 L-3,132 L-1,132 Z " transform="translate(150,96)" style="fill: #767671;"/><path d="M0,0 L3,1 L3,134 L-1,138 L-54,138 L-56,134 L-3,134 L-3,132 L-1,132 Z " transform="translate(70,96)" style="fill: #767671;"/><path d="M0,0 L3,1 L3,134 L-1,138 L-54,138 L-56,134 L-3,134 L-3,132 L-1,132 Z " transform="translate(230,16)" style="fill: #767671;"/><path d="M0,0 L3,1 L3,134 L-1,138 L-54,138 L-56,134 L-3,134 L-3,132 L-1,132 Z " transform="translate(550,256)" style="fill: #757672;"/><path d="M0,0 L3,1 L3,134 L-1,138 L-54,138 L-56,134 L-3,133 L-1,130 Z " transform="translate(710,416)" style="fill: #757671;"/><path d="M0,0 L3,1 L3,134 L-1,138 L-54,138 L-56,134 L-3,133 L-1,130 Z " transform="translate(150,416)" style="fill: #767671;"/><path d="M0,0 L3,1 L3,134 L-1,138 L-54,138 L-56,134 L-3,133 L-1,130 Z " transform="translate(70,416)" style="fill: #767671;"/><path d="M0,0 L3,1 L3,134 L-1,138 L-54,138 L-56,134 L-3,133 L-1,130 Z " transform="translate(950,336)" style="fill: #777571;"/><path d="M0,0 L3,1 L3,134 L-1,138 L-54,138 L-56,134 L-3,133 L-1,130 Z " transform="translate(470,96)" style="fill: #757671;"/><path d="M0,0 L3,1 L3,134 L-1,138 L-54,138 L-56,134 L-3,133 L-1,130 Z " transform="translate(390,96)" style="fill: #757671;"/><path d="M0,0 L3,1 L3,134 L-1,138 L-54,138 L-56,134 L-3,133 L-1,130 Z " transform="translate(950,96)" style="fill: #777571;"/><path d="M0,0 L3,1 L3,134 L-1,138 L-54,138 L-56,134 L-3,133 L-1,130 Z " transform="translate(870,96)" style="fill: #767672;"/><path d="M0,0 L3,1 L3,134 L-1,138 L-54,138 L-56,134 L-3,133 L-1,130 Z " transform="translate(310,16)" style="fill: #757671;"/></svg>